<?xml version="1.0" standalone="no"?>
<!DOCTYPE svg PUBLIC "-//W3C//DTD SVG 20010904//EN"
 "http://www.w3.org/TR/2001/REC-SVG-20010904/DTD/svg10.dtd">
<svg version="1.0" xmlns="http://www.w3.org/2000/svg"
 width="1280.000000pt" height="1062.000000pt" viewBox="0 0 1280.000000 1062.000000"
 preserveAspectRatio="xMidYMid meet">
<g transform="translate(0.000000,1062.000000) scale(0.100000,-0.100000)"
fill="#000000" stroke="none">
<path d="M5047 10599 c-306 -31 -514 -73 -757 -151 -390 -126 -733 -311 -1069
-576 -116 -91 -424 -399 -501 -499 -30 -40 -61 -74 -68 -77 -8 -4 -68 1 -135
10 -157 21 -505 15 -647 -11 -328 -59 -606 -170 -870 -346 -416 -278 -725
-684 -880 -1159 -87 -264 -137 -640 -111 -825 6 -44 18 -129 26 -190 96 -706
557 -1341 1211 -1668 469 -234 1024 -292 1543 -161 l93 23 117 -108 c546 -511
1172 -812 1884 -905 65 -9 122 -18 127 -21 5 -3 4 -16 -2 -31 -17 -36 11 -86
84 -153 164 -150 196 -186 213 -245 21 -71 17 -111 -10 -111 -23 0 -79 87 -96
148 -11 41 -26 51 -76 51 -67 0 -113 -48 -113 -118 0 -24 11 -48 36 -82 22
-28 38 -63 41 -86 5 -34 3 -38 -16 -38 -12 0 -42 19 -67 43 -33 32 -46 53 -53
87 -27 134 -65 280 -83 318 -37 77 -97 85 -134 17 -22 -42 -15 -117 21 -204
34 -83 29 -100 -24 -70 -68 38 -89 64 -101 126 -22 116 -47 162 -97 177 -15 5
-28 1 -44 -15 -18 -18 -21 -30 -17 -71 6 -62 -10 -59 -35 8 -24 63 -34 74 -66
74 -52 0 -76 -38 -59 -92 6 -20 8 -48 4 -62 -7 -27 -51 -56 -85 -56 -25 0 -51
-26 -51 -51 0 -41 35 -59 113 -59 l72 -1 -37 -19 c-38 -21 -78 -64 -78 -86 0
-47 90 -58 200 -24 36 11 82 20 104 20 38 0 106 -33 106 -51 0 -13 -35 -26
-110 -39 -75 -14 -113 -31 -134 -62 -19 -27 -21 -89 -4 -106 25 -25 117 -13
242 30 148 52 231 57 309 19 32 -16 47 -29 45 -40 -3 -13 -20 -16 -108 -16
-138 0 -147 -2 -170 -25 -27 -27 -27 -98 0 -133 29 -36 73 -48 175 -45 79 3
90 1 93 -15 5 -27 -70 -57 -145 -57 -47 0 -100 12 -210 46 -82 25 -164 46
-183 46 -42 0 -80 -39 -80 -82 0 -52 44 -77 193 -112 101 -23 110 -39 42 -73
-51 -25 -99 -23 -200 5 -90 26 -130 23 -146 -14 -16 -34 11 -81 56 -97 56 -20
41 -30 -35 -23 -60 6 -73 4 -90 -11 -11 -10 -20 -27 -20 -37 0 -27 44 -68 73
-68 45 0 62 -33 62 -124 0 -77 1 -81 23 -84 28 -4 55 18 88 70 30 47 44 48 44
5 0 -45 25 -77 59 -77 40 0 57 24 82 115 37 137 80 205 130 205 30 0 30 -14
-1 -104 -34 -97 -36 -125 -15 -166 30 -58 82 -66 118 -17 30 40 42 76 66 204
32 164 71 231 161 278 52 27 49 -5 -9 -101 -78 -126 -79 -174 -5 -209 50 -23
95 -13 133 31 18 20 33 51 37 74 7 43 43 90 69 90 20 0 21 -96 1 -143 -7 -18
-69 -86 -141 -152 -159 -150 -195 -213 -143 -249 30 -22 86 -20 125 3 17 11
55 48 83 83 81 97 90 99 90 24 0 -78 -12 -100 -90 -175 -73 -70 -90 -106 -71
-147 13 -30 60 -33 99 -6 64 44 70 35 18 -27 -45 -54 -52 -76 -32 -106 22 -33
69 -34 99 -2 37 40 65 50 98 37 16 -7 39 -26 50 -41 24 -34 51 -37 79 -9 28
28 25 60 -10 111 -16 24 -30 47 -30 52 0 4 18 -2 41 -13 46 -24 97 -23 112 1
18 29 -3 70 -82 152 -43 45 -83 92 -90 104 -15 29 -14 75 2 97 12 16 19 11 80
-57 79 -88 111 -105 167 -88 22 6 45 21 50 32 19 34 -22 101 -104 172 -115
101 -173 164 -191 210 -18 48 -17 128 2 134 17 6 80 -84 94 -135 19 -69 66
-89 134 -56 42 20 69 73 61 119 -4 19 -22 53 -41 75 -27 32 -35 51 -35 81 0
47 12 50 66 11 51 -37 58 -53 94 -212 42 -184 56 -225 91 -255 39 -32 49 -31
83 4 43 45 45 92 5 205 -19 52 -30 98 -26 102 10 10 71 -22 108 -57 17 -15 30
-41 34 -65 21 -127 60 -194 110 -194 35 0 50 27 48 87 -1 29 2 53 7 53 5 0 17
-24 28 -52 11 -29 31 -62 46 -72 26 -20 26 -20 53 1 22 16 28 28 26 54 -2 19
-4 49 -5 67 -3 41 17 60 78 76 46 12 49 14 52 48 5 53 -28 73 -108 65 -58 -5
-81 5 -40 18 69 22 105 101 58 126 -27 14 -116 6 -178 -16 -25 -9 -69 -17 -97
-18 -45 -2 -56 2 -80 25 -35 36 -26 44 69 62 42 8 90 22 107 31 55 28 79 106
43 138 -30 28 -97 20 -222 -23 -140 -49 -226 -59 -297 -36 -28 9 -58 25 -68
36 -15 17 -15 19 1 28 10 6 59 8 113 5 123 -7 167 8 176 60 19 97 -64 162
-176 138 -48 -11 -105 -6 -115 10 -8 14 33 47 73 58 65 18 113 13 258 -30 221
-66 221 -66 252 -43 58 43 50 113 -14 141 -21 9 -78 26 -128 38 -102 24 -118
42 -63 71 62 32 93 34 173 8 88 -28 147 -31 169 -8 36 36 3 106 -56 118 -21 4
-28 10 -22 16 7 7 30 6 68 -1 71 -13 106 4 106 50 0 34 -23 56 -68 66 -50 10
-65 41 -61 126 3 60 1 73 -13 83 -23 14 -43 2 -87 -55 -41 -55 -51 -59 -51
-21 0 38 -35 82 -65 82 -35 0 -59 -38 -84 -132 -27 -103 -56 -156 -99 -181
-56 -33 -61 -12 -22 102 37 111 36 137 -10 182 -34 35 -59 37 -88 6 -32 -34
-48 -81 -71 -204 -23 -118 -40 -169 -73 -216 -24 -33 -95 -87 -115 -87 -23 0
-14 39 21 95 48 75 76 131 76 153 0 31 -38 70 -77 81 -67 19 -134 -29 -152
-107 -14 -66 -79 -123 -82 -74 -4 45 4 109 17 133 7 15 69 79 138 144 84 78
133 132 147 163 22 44 22 47 5 75 -9 16 -15 31 -13 33 2 2 54 13 116 24 249
45 549 137 755 232 61 28 125 51 141 51 17 0 87 -25 157 -56 251 -112 525
-193 805 -237 37 -6 70 -13 74 -16 4 -2 0 -18 -9 -34 -15 -27 -16 -32 -2 -57
9 -16 30 -35 48 -45 55 -27 51 -31 -26 -23 -62 6 -76 5 -93 -10 -10 -10 -19
-26 -19 -35 0 -27 39 -70 64 -70 56 0 83 -55 67 -138 -7 -34 -5 -47 8 -64 25
-30 54 -16 96 48 39 59 55 62 55 9 0 -41 22 -65 59 -65 40 0 56 23 86 133 16
57 40 115 56 137 29 39 73 61 89 44 5 -5 -4 -47 -20 -94 -39 -113 -39 -153 -1
-191 72 -71 126 -13 162 174 39 204 73 267 143 267 22 0 36 -5 36 -12 0 -7
-17 -40 -37 -73 -28 -45 -37 -71 -38 -104 0 -40 4 -47 34 -68 40 -27 82 -29
122 -6 31 18 69 85 69 119 0 26 54 79 70 69 18 -11 7 -126 -15 -161 -10 -16
-67 -74 -128 -129 -117 -106 -167 -172 -167 -217 0 -34 24 -48 86 -48 44 0 51
4 98 53 28 28 66 69 83 90 38 44 53 41 53 -11 -1 -82 -16 -114 -80 -171 -89
-78 -113 -137 -70 -176 16 -14 24 -16 51 -6 18 6 41 18 50 27 38 34 37 6 -1
-45 -43 -57 -49 -81 -24 -105 26 -27 76 -20 106 14 38 43 83 41 128 -5 39 -40
72 -45 94 -13 23 32 20 47 -18 108 -19 30 -34 56 -32 57 1 1 25 -10 54 -24 44
-22 57 -24 78 -15 58 27 40 75 -74 194 -82 88 -83 89 -80 136 4 66 24 65 82
-4 83 -101 131 -123 196 -89 64 33 28 107 -111 228 -104 91 -146 140 -159 187
-13 45 -13 117 0 125 21 13 88 -82 104 -147 9 -39 33 -58 72 -58 63 0 100 30
119 97 7 27 -15 81 -49 118 -20 21 -26 38 -26 71 0 56 14 57 75 2 l47 -43 38
-167 c52 -223 83 -279 144 -264 25 6 66 73 66 107 0 13 -14 62 -30 109 -46
130 -41 142 36 89 58 -39 68 -58 89 -153 19 -88 54 -136 98 -136 35 0 45 18
49 85 l3 60 32 -67 c32 -67 54 -85 91 -74 11 4 25 17 32 31 11 21 11 32 0 66
-12 35 -12 45 1 67 8 15 26 30 39 33 74 21 85 26 88 42 12 61 -34 93 -118 82
-34 -5 -50 -3 -50 4 0 6 6 11 14 11 23 0 86 65 86 88 0 12 -11 29 -25 38 -30
20 -85 15 -183 -16 -81 -25 -118 -25 -160 0 -48 30 -39 53 23 63 105 18 158
40 182 76 26 39 29 69 9 97 -24 32 -111 24 -251 -25 -80 -28 -139 -43 -177
-44 -100 -3 -92 19 25 63 169 65 459 224 655 358 224 154 507 417 680 633 l93
115 135 12 c565 48 1058 339 1369 806 184 277 287 594 312 965 9 133 -38 422
-97 606 -202 621 -728 1087 -1374 1218 l-109 22 -89 139 c-425 666 -1037 1149
-1765 1392 -334 112 -743 180 -1068 178 -243 -1 -603 -48 -835 -110 -197 -52
-445 -141 -570 -204 -33 -17 -69 -30 -80 -30 -11 0 -51 14 -88 31 -376 172
-724 261 -1191 304 -202 18 -258 18 -484 -6z m613 -6665 c0 -4 -19 -28 -42
-53 -24 -26 -55 -61 -71 -79 -15 -18 -32 -32 -37 -32 -15 0 -12 123 3 142 6 9
19 18 27 21 22 8 120 8 120 1z m-375 -28 c13 -13 27 -36 31 -50 8 -34 -3 -76
-20 -76 -18 0 -128 129 -120 141 3 5 23 9 45 9 29 0 47 -7 64 -24z m2853 12
c-7 -19 -79 -22 -103 -4 -19 14 -15 15 43 16 47 0 63 -3 60 -12z"/>
<path d="M2314 4435 c-7 -16 -2 -47 11 -78 7 -16 4 -18 -28 -12 -29 6 -37 3
-46 -13 -6 -12 -11 -23 -11 -26 0 -3 27 -35 59 -71 60 -66 83 -117 62 -138 -9
-9 -24 1 -60 40 -52 56 -87 71 -120 53 -43 -22 -27 -55 78 -158 86 -85 99
-102 106 -140 8 -50 -5 -73 -29 -53 -9 7 -27 37 -40 66 -14 29 -32 55 -41 59
-34 13 -95 -34 -95 -74 0 -9 11 -31 25 -50 27 -37 34 -90 11 -90 -20 0 -64 45
-71 72 -54 229 -69 268 -105 268 -24 0 -50 -37 -50 -72 0 -15 9 -51 20 -80 24
-65 25 -68 2 -68 -36 0 -79 54 -92 114 -12 58 -37 96 -64 96 -18 0 -27 -14
-36 -54 l-7 -31 -13 33 c-28 74 -86 60 -82 -21 3 -48 -6 -60 -51 -71 -15 -4
-31 -14 -34 -23 -9 -22 32 -53 70 -53 l31 0 -27 -28 c-33 -34 -34 -49 -4 -63
17 -8 39 -6 84 5 83 22 126 20 148 -4 17 -19 17 -20 -9 -30 -15 -5 -35 -10
-45 -10 -32 0 -81 -22 -91 -40 -15 -28 -12 -67 6 -74 28 -11 53 -7 146 24 101
33 152 37 204 15 58 -24 38 -39 -60 -45 -91 -5 -106 -13 -106 -56 0 -12 9 -32
19 -45 17 -21 28 -24 92 -24 59 0 74 -3 77 -16 4 -21 -39 -39 -91 -39 -24 0
-86 13 -137 30 -137 43 -170 39 -170 -22 0 -32 25 -48 114 -71 70 -19 77 -24
51 -43 -35 -26 -65 -27 -140 -9 -61 16 -76 16 -89 6 -24 -20 -19 -47 10 -70
l27 -21 -45 0 c-78 0 -88 -43 -17 -78 32 -16 34 -21 39 -76 3 -33 10 -61 17
-63 6 -2 24 12 40 31 30 39 43 45 43 21 0 -8 9 -24 20 -35 31 -31 54 -12 75
62 22 80 40 115 66 129 37 19 42 -3 20 -76 -25 -80 -15 -118 31 -123 36 -4 55
26 74 119 23 115 34 141 72 182 31 32 72 50 72 30 0 -3 -16 -35 -36 -70 -42
-76 -42 -111 0 -132 43 -20 91 5 105 55 10 36 37 74 53 74 4 0 8 -23 8 -52 l0
-52 -99 -95 c-54 -53 -102 -106 -106 -119 -9 -31 11 -52 50 -52 27 0 42 10 83
55 28 30 55 55 61 55 6 0 11 -20 11 -47 0 -42 -4 -50 -49 -92 -55 -51 -72 -90
-46 -111 12 -10 21 -10 41 -1 40 18 47 13 24 -19 -12 -17 -20 -40 -18 -53 4
-30 48 -35 73 -7 24 27 53 25 85 -5 46 -44 86 -5 56 54 -21 40 -21 41 13 28
15 -5 35 -7 45 -4 32 13 18 53 -44 121 -45 50 -60 74 -60 96 0 43 19 38 77
-20 53 -53 88 -63 117 -34 9 8 16 18 16 20 0 21 -40 71 -103 127 -41 37 -82
82 -91 101 -17 37 -21 91 -7 100 13 8 49 -36 64 -79 18 -53 55 -68 95 -38 38
28 41 74 7 123 -45 64 -21 102 32 53 26 -24 35 -47 58 -146 15 -65 36 -128 47
-142 28 -35 55 -32 75 9 15 33 15 38 -5 99 -12 35 -22 69 -22 75 0 22 28 12
63 -20 26 -25 36 -45 41 -80 14 -95 86 -135 96 -53 5 41 9 40 35 -9 31 -59 80
-39 70 28 -7 47 10 71 55 78 54 7 31 68 -26 68 -39 0 -43 9 -14 35 12 11 20
28 18 39 -4 29 -46 32 -135 10 -68 -17 -72 -17 -98 0 -38 25 -27 39 41 54 66
15 104 44 104 79 0 46 -69 47 -184 3 -69 -26 -113 -30 -166 -14 -38 11 -50 19
-48 32 3 14 16 17 79 17 87 0 109 12 109 60 0 51 -28 69 -112 70 -82 0 -100
17 -44 40 50 21 80 19 194 -15 143 -42 182 -39 182 17 0 29 -32 50 -112 71
-73 20 -81 39 -25 61 34 13 44 12 91 -2 62 -20 98 -21 114 -5 18 18 15 33 -14
61 l-26 26 49 3 c44 3 48 5 48 28 0 19 -9 29 -37 43 -41 18 -41 19 -42 87 -1
38 -4 45 -23 48 -15 2 -26 -6 -39 -28 -21 -35 -36 -34 -44 1 -5 19 -12 24 -35
24 -28 0 -31 -4 -55 -75 -33 -95 -45 -117 -71 -125 -31 -10 -34 1 -19 53 23
83 24 115 2 136 -45 40 -83 -4 -106 -125 -19 -98 -31 -128 -69 -166 -30 -32
-67 -44 -67 -22 0 7 13 34 30 60 41 66 47 95 25 119 -40 44 -119 14 -131 -50
-12 -57 -64 -78 -64 -25 0 48 23 82 115 171 81 77 95 95 95 122 0 25 -5 33
-25 38 -38 9 -76 -11 -124 -67 -50 -58 -67 -54 -56 12 6 34 18 54 56 90 38 37
49 54 49 78 0 37 -16 46 -53 32 -31 -12 -33 -9 -11 24 19 29 12 70 -13 79 -10
4 -26 -3 -43 -19 -34 -33 -74 -33 -96 0 -18 28 -51 33 -60 10z"/>
<path d="M7946 2318 c-20 -28 -20 -55 -1 -88 21 -37 19 -53 -4 -40 -26 14 -64
13 -79 -2 -26 -26 -12 -60 54 -131 66 -72 94 -118 94 -157 0 -45 -30 -33 -98
39 -72 77 -103 88 -150 55 -47 -32 -16 -94 92 -186 118 -101 148 -145 150
-227 2 -55 -27 -53 -64 5 -16 26 -30 55 -30 64 0 59 -75 80 -128 35 -51 -43
-50 -94 3 -157 30 -35 35 -98 9 -98 -32 0 -91 72 -103 125 -6 28 -20 90 -31
138 -34 154 -86 212 -137 153 -31 -36 -30 -95 2 -181 33 -87 23 -100 -42 -53
-46 33 -49 38 -69 118 -16 62 -28 90 -48 107 -32 27 -36 28 -61 9 -15 -11 -19
-25 -17 -61 1 -39 -1 -45 -12 -36 -8 7 -17 24 -21 39 -15 59 -70 82 -98 41
-11 -15 -12 -29 -5 -59 13 -50 -7 -85 -54 -95 -41 -9 -58 -22 -58 -45 0 -31
33 -50 90 -50 l54 0 -42 -36 c-23 -19 -42 -43 -42 -53 0 -47 51 -52 182 -19
87 22 88 22 123 4 46 -25 42 -48 -10 -59 -126 -26 -156 -44 -170 -99 -5 -20
-1 -32 15 -48 29 -29 76 -23 220 26 88 31 113 36 162 31 57 -5 120 -32 122
-52 1 -6 -46 -12 -112 -15 -128 -6 -142 -13 -142 -81 0 -30 7 -43 32 -64 30
-25 37 -27 103 -23 116 8 149 -22 64 -56 -60 -24 -105 -20 -248 24 -71 22
-145 40 -164 40 -55 0 -84 -50 -57 -100 9 -18 80 -44 188 -70 48 -12 52 -23
17 -46 -44 -29 -87 -33 -151 -13 -78 25 -131 27 -151 6 -24 -24 -7 -68 34 -87
49 -23 40 -30 -30 -23 -51 4 -65 2 -76 -11 -25 -29 -3 -69 46 -84 49 -16 57
-31 57 -117 1 -51 4 -60 21 -63 13 -3 32 10 62 44 39 45 43 47 43 24 0 -58 59
-91 92 -52 8 9 23 46 33 82 30 110 69 170 112 170 29 0 29 -1 -2 -88 -32 -92
-32 -126 0 -158 60 -60 110 -3 140 159 9 48 23 107 31 130 16 46 63 101 107
123 45 24 45 -7 0 -79 -69 -110 -72 -151 -14 -181 39 -21 59 -20 98 4 24 14
36 32 47 71 17 56 40 89 64 89 11 0 14 -13 10 -66 l-4 -67 -126 -121 c-104
-100 -127 -128 -133 -158 -9 -46 -3 -56 39 -64 50 -9 97 18 151 87 60 76 75
77 75 2 0 -57 0 -57 -65 -120 -79 -77 -97 -129 -52 -157 14 -9 26 -6 58 12 22
13 43 22 45 20 2 -3 -9 -22 -26 -44 -36 -48 -38 -78 -6 -99 27 -18 48 -12 80
24 27 30 67 27 101 -9 33 -34 55 -38 78 -12 23 25 21 40 -8 87 -33 53 -31 56
13 34 42 -22 70 -21 85 2 18 29 -2 68 -72 142 -38 39 -71 82 -75 94 -9 27 3
73 18 73 7 0 34 -25 61 -56 61 -72 101 -90 150 -70 68 29 48 69 -108 219 -88
84 -108 110 -117 145 -13 51 -10 94 7 99 16 6 71 -72 83 -118 13 -46 40 -63
86 -55 75 15 98 103 44 171 -20 25 -30 49 -30 71 0 46 22 44 70 -3 32 -33 40
-50 59 -138 37 -162 50 -202 77 -234 32 -38 48 -39 79 -5 33 36 33 88 -1 182
-15 40 -24 75 -20 79 8 9 46 -9 83 -41 25 -21 34 -40 48 -100 19 -88 45 -126
85 -126 32 0 40 14 40 71 0 21 4 39 8 39 4 0 18 -22 29 -50 24 -56 42 -68 80
-51 24 11 25 14 18 70 -6 55 -5 59 21 80 14 11 37 21 49 21 51 0 58 66 10 88
-15 7 -43 9 -66 6 -46 -8 -50 4 -9 28 17 9 35 28 41 42 27 58 -42 72 -175 36
-82 -23 -113 -20 -146 15 -26 27 -20 32 57 46 91 17 122 33 139 75 14 32 13
38 -1 60 -22 34 -61 31 -210 -16 -139 -44 -170 -47 -238 -24 -100 34 -83 68
29 58 122 -11 164 9 164 75 0 70 -70 112 -157 93 -81 -18 -118 18 -53 50 53
27 118 22 253 -19 159 -48 189 -51 216 -24 26 26 27 65 1 91 -10 10 -45 26
-77 35 -117 33 -138 40 -137 50 0 6 22 21 48 34 l47 24 74 -22 c123 -37 190
-16 155 46 -9 15 -26 33 -38 39 -43 21 -37 26 24 19 50 -5 64 -4 77 10 10 9
17 22 17 28 0 22 -31 57 -49 57 -11 0 -29 9 -42 19 -21 17 -24 27 -22 84 4
102 -31 113 -89 28 l-32 -46 -7 33 c-9 46 -27 64 -63 60 -30 -3 -32 -7 -67
-112 -38 -113 -68 -156 -110 -156 -24 0 -24 2 6 90 32 93 32 124 0 156 -61 61
-112 2 -141 -162 -20 -115 -47 -177 -97 -219 -41 -35 -77 -46 -77 -22 0 6 21
46 45 87 57 93 59 131 13 160 -40 24 -76 25 -106 4 -26 -18 -52 -64 -52 -92 0
-24 -46 -75 -60 -67 -14 9 -12 94 3 126 7 15 55 66 107 114 139 128 180 198
131 225 -55 29 -116 1 -182 -84 -56 -72 -69 -72 -69 0 0 55 1 56 70 129 53 56
70 81 70 102 0 54 -46 70 -93 33 -39 -31 -42 -24 -8 22 35 47 40 87 13 111
-25 23 -29 22 -73 -18 -22 -19 -48 -35 -60 -35 -11 0 -38 18 -60 40 -22 22
-44 40 -49 40 -5 0 -16 -10 -24 -22z"/>
<path d="M2095 2276 c-14 -21 -14 -28 -2 -65 l15 -41 -38 6 c-32 5 -40 3 -49
-14 -17 -33 -14 -40 42 -100 70 -75 87 -101 87 -134 0 -43 -25 -35 -84 27 -44
46 -57 55 -87 55 -41 0 -59 -15 -59 -49 0 -18 26 -50 100 -120 98 -95 130
-143 130 -195 0 -62 -47 -33 -81 50 -24 57 -41 69 -82 59 -64 -16 -81 -89 -34
-144 31 -37 37 -91 11 -91 -9 0 -30 15 -48 33 -27 27 -36 49 -55 137 -28 125
-52 184 -80 200 -18 9 -25 7 -46 -14 -31 -31 -33 -76 -5 -146 35 -88 22 -102
-42 -50 -31 26 -39 41 -49 91 -14 70 -40 109 -75 109 -24 0 -30 -11 -36 -70
-3 -23 -5 -21 -28 20 -27 47 -51 60 -76 39 -12 -10 -14 -24 -9 -59 7 -52 -3
-67 -59 -85 -64 -21 -32 -85 42 -85 l34 0 -31 -26 c-38 -32 -40 -61 -5 -74 19
-8 48 -5 114 12 94 23 133 18 147 -17 8 -22 4 -24 -66 -36 -82 -15 -113 -40
-109 -88 3 -35 4 -36 48 -39 30 -2 75 7 134 28 101 34 168 38 221 13 62 -30
45 -43 -55 -43 -77 0 -93 -3 -110 -20 -27 -27 -25 -63 4 -97 23 -26 29 -28
102 -28 64 0 79 -3 82 -16 1 -9 -8 -20 -23 -27 -45 -21 -122 -13 -242 23 -121
37 -156 37 -174 3 -27 -50 16 -86 131 -111 72 -16 78 -39 16 -62 -41 -16 -49
-16 -93 -2 -106 33 -143 29 -143 -17 0 -24 28 -56 48 -56 7 0 12 -4 12 -9 0
-4 -22 -6 -48 -3 -35 3 -51 0 -61 -11 -20 -25 -9 -50 28 -69 51 -25 56 -34 56
-96 0 -51 2 -57 22 -60 16 -2 28 6 45 32 25 40 40 41 48 6 7 -32 35 -48 57
-34 10 6 30 48 45 94 28 86 58 130 90 130 23 0 23 -22 -2 -93 -23 -66 -19
-101 16 -123 50 -34 83 11 109 147 19 104 41 153 81 189 69 60 84 30 30 -58
-47 -78 -51 -97 -27 -121 48 -48 111 -35 137 26 31 74 40 88 57 91 14 3 17 -4
17 -45 -1 -26 -6 -57 -13 -68 -7 -12 -53 -60 -103 -108 -119 -114 -142 -167
-79 -183 39 -10 80 13 130 72 26 30 51 54 56 54 5 0 9 -23 9 -52 0 -49 -3 -54
-48 -97 -59 -55 -76 -85 -68 -117 8 -29 40 -32 74 -8 34 24 38 10 8 -29 -29
-37 -32 -57 -14 -75 19 -19 48 -14 80 13 35 29 60 26 95 -11 27 -29 35 -30 58
-4 18 20 18 22 -4 67 -20 41 -20 45 -4 38 10 -5 32 -10 49 -12 67 -10 56 46
-25 131 -61 64 -77 93 -66 126 10 30 23 25 73 -31 52 -58 81 -73 117 -59 59
22 36 81 -63 166 -36 31 -78 71 -93 91 -47 58 -50 172 -4 133 8 -7 29 -41 46
-76 27 -57 33 -64 59 -64 16 0 41 11 56 24 38 32 38 82 0 126 -17 21 -26 42
-24 58 4 35 18 37 56 5 29 -25 36 -42 67 -167 44 -178 77 -220 124 -160 26 33
26 69 1 136 -21 56 -25 88 -12 88 5 0 27 -13 50 -30 36 -26 42 -36 53 -90 15
-75 41 -112 78 -108 23 3 27 8 31 48 l5 45 23 -43 c42 -78 87 -69 87 19 0 56
-3 53 75 89 8 4 16 15 18 24 6 29 -18 46 -64 46 -24 0 -44 3 -44 6 0 3 14 17
30 31 72 60 6 94 -114 58 -67 -20 -109 -19 -130 4 -25 27 -15 37 53 50 77 15
111 42 111 86 0 56 -45 59 -176 14 -104 -36 -183 -42 -231 -16 -18 10 -33 24
-33 32 0 12 18 15 95 15 89 0 95 1 111 25 20 31 11 79 -19 100 -15 10 -46 15
-99 15 -42 0 -79 4 -82 9 -12 18 35 44 87 49 39 3 81 -5 174 -32 67 -20 129
-36 138 -36 20 0 55 36 55 55 0 33 -46 62 -123 81 -82 19 -94 32 -52 60 27 18
70 16 168 -7 51 -12 59 -11 73 3 23 23 10 66 -24 81 -25 11 -23 12 33 17 53 4
60 8 63 28 5 30 -11 48 -48 56 -38 7 -52 40 -43 101 5 37 3 46 -12 52 -14 5
-28 -5 -57 -38 l-38 -44 -6 34 c-8 39 -44 61 -68 42 -9 -7 -27 -50 -41 -95
-24 -82 -61 -136 -91 -136 -19 0 -18 20 7 100 19 63 19 71 5 98 -9 17 -25 34
-37 37 -42 14 -75 -47 -99 -182 -15 -86 -33 -125 -75 -162 -64 -56 -86 -33
-39 41 15 23 33 57 41 75 13 33 12 35 -16 63 -16 17 -37 30 -46 30 -32 0 -72
-30 -84 -62 -22 -60 -36 -83 -54 -86 -14 -3 -17 5 -17 50 l0 53 110 107 c129
126 151 176 85 192 -39 10 -89 -19 -132 -75 -48 -64 -63 -63 -63 1 0 48 2 53
61 109 49 48 60 64 57 87 -5 40 -31 53 -68 32 -35 -20 -36 -19 -10 24 24 40
25 61 4 82 -21 22 -26 21 -62 -14 -41 -39 -65 -38 -108 5 -19 19 -37 35 -39
35 -3 0 -12 -11 -20 -24z"/>
</g>
</svg>
